<svg version="1.2" xmlns="http://www.w3.org/2000/svg" viewBox="0 0 24 16" width="24" height="16"><defs><clipPath clipPathUnits="userSpaceOnUse" id="cp1"><path d="m-254-2578h1366v5714h-1366z"/></clipPath></defs><style>.a{fill:#fff}</style><g clip-path="url(#cp1)"><path fill-rule="evenodd" class="a" d="m23.3 8.5c-0.2 0.3-5.2 7.2-11.5 7.2-6.4 0-11.4-6.9-11.6-7.2-0.2-0.2-0.2-0.5 0-0.7 0.2-0.3 5.2-7.2 11.6-7.2 6.3 0 11.3 6.9 11.5 7.2 0.2 0.2 0.2 0.5 0 0.7zm-6.7-0.4c0-2.6-2.2-4.7-4.8-4.7-2.7 0-4.9 2.1-4.9 4.7 0 2.7 2.2 4.8 4.9 4.8 2.6 0 4.8-2.1 4.8-4.8z"/></g></svg>